<mxfile host="app.diagrams.net" modified="2024-03-17T11:15:14.687Z" agent="Mozilla/5.0 (Windows NT 10.0; Win64; x64) AppleWebKit/537.36 (KHTML, like Gecko) Chrome/122.0.0.0 Safari/537.36" etag="xoXlEjx-HKyG9u5F9G_v" version="24.0.7" type="github">
  <diagram name="Page-1" id="tdrgTAGG6zg4VP8gDdj_">
    <mxGraphModel dx="2049" dy="1103" grid="1" gridSize="10" guides="1" tooltips="1" connect="1" arrows="1" fold="1" page="1" pageScale="1" pageWidth="850" pageHeight="1100" math="0" shadow="0">
      <root>
        <mxCell id="0" />
        <mxCell id="1" parent="0" />
        <mxCell id="QtgTP4tEdjy12H58Bp2z-3" value="PLANE_TYPE" style="rounded=0;whiteSpace=wrap;html=1;" vertex="1" parent="1">
          <mxGeometry x="220" y="620" width="90" height="30" as="geometry" />
        </mxCell>
        <mxCell id="QtgTP4tEdjy12H58Bp2z-4" value="" style="endArrow=none;html=1;rounded=0;exitX=0;exitY=0;exitDx=0;exitDy=0;" edge="1" parent="1" source="QtgTP4tEdjy12H58Bp2z-3" target="QtgTP4tEdjy12H58Bp2z-5">
          <mxGeometry width="50" height="50" relative="1" as="geometry">
            <mxPoint x="340" y="660" as="sourcePoint" />
            <mxPoint x="170" y="590" as="targetPoint" />
          </mxGeometry>
        </mxCell>
        <mxCell id="QtgTP4tEdjy12H58Bp2z-5" value="&lt;u&gt;Model&lt;/u&gt;" style="ellipse;whiteSpace=wrap;html=1;" vertex="1" parent="1">
          <mxGeometry x="110" y="590" width="50" height="20" as="geometry" />
        </mxCell>
        <mxCell id="QtgTP4tEdjy12H58Bp2z-6" value="" style="endArrow=none;html=1;rounded=0;exitX=0;exitY=1;exitDx=0;exitDy=0;" edge="1" parent="1" target="QtgTP4tEdjy12H58Bp2z-7" source="QtgTP4tEdjy12H58Bp2z-3">
          <mxGeometry width="50" height="50" relative="1" as="geometry">
            <mxPoint x="240" y="700" as="sourcePoint" />
            <mxPoint x="190" y="670" as="targetPoint" />
          </mxGeometry>
        </mxCell>
        <mxCell id="QtgTP4tEdjy12H58Bp2z-7" value="Capacity" style="ellipse;whiteSpace=wrap;html=1;" vertex="1" parent="1">
          <mxGeometry x="120" y="670" width="60" height="20" as="geometry" />
        </mxCell>
        <mxCell id="QtgTP4tEdjy12H58Bp2z-8" value="" style="endArrow=none;html=1;rounded=0;exitX=0;exitY=0.5;exitDx=0;exitDy=0;" edge="1" parent="1" target="QtgTP4tEdjy12H58Bp2z-9" source="QtgTP4tEdjy12H58Bp2z-3">
          <mxGeometry width="50" height="50" relative="1" as="geometry">
            <mxPoint x="200" y="615" as="sourcePoint" />
            <mxPoint x="170" y="635" as="targetPoint" />
          </mxGeometry>
        </mxCell>
        <mxCell id="QtgTP4tEdjy12H58Bp2z-9" value="Weight" style="ellipse;whiteSpace=wrap;html=1;" vertex="1" parent="1">
          <mxGeometry x="100" y="635" width="60" height="20" as="geometry" />
        </mxCell>
        <mxCell id="QtgTP4tEdjy12H58Bp2z-12" value="" style="endArrow=none;html=1;rounded=0;exitX=1;exitY=0.5;exitDx=0;exitDy=0;" edge="1" parent="1" source="QtgTP4tEdjy12H58Bp2z-3">
          <mxGeometry width="50" height="50" relative="1" as="geometry">
            <mxPoint x="370" y="650" as="sourcePoint" />
            <mxPoint x="380" y="635" as="targetPoint" />
          </mxGeometry>
        </mxCell>
        <mxCell id="QtgTP4tEdjy12H58Bp2z-13" value="1" style="text;strokeColor=none;align=center;fillColor=none;html=1;verticalAlign=middle;whiteSpace=wrap;rounded=0;" vertex="1" parent="1">
          <mxGeometry x="360" y="620" width="20" height="20" as="geometry" />
        </mxCell>
        <mxCell id="QtgTP4tEdjy12H58Bp2z-14" value="OF_TYPE" style="rhombus;whiteSpace=wrap;html=1;" vertex="1" parent="1">
          <mxGeometry x="380" y="613.75" width="70" height="42.5" as="geometry" />
        </mxCell>
        <mxCell id="QtgTP4tEdjy12H58Bp2z-15" value="" style="endArrow=none;html=1;rounded=0;exitX=1;exitY=0.5;exitDx=0;exitDy=0;" edge="1" parent="1">
          <mxGeometry width="50" height="50" relative="1" as="geometry">
            <mxPoint x="450" y="634.52" as="sourcePoint" />
            <mxPoint x="520" y="634.52" as="targetPoint" />
          </mxGeometry>
        </mxCell>
        <mxCell id="QtgTP4tEdjy12H58Bp2z-16" value="N" style="text;strokeColor=none;align=center;fillColor=none;html=1;verticalAlign=middle;whiteSpace=wrap;rounded=0;" vertex="1" parent="1">
          <mxGeometry x="450" y="620" width="20" height="20" as="geometry" />
        </mxCell>
        <mxCell id="QtgTP4tEdjy12H58Bp2z-17" value="AIRPLANE" style="rounded=0;whiteSpace=wrap;html=1;" vertex="1" parent="1">
          <mxGeometry x="520" y="620" width="90" height="30" as="geometry" />
        </mxCell>
        <mxCell id="QtgTP4tEdjy12H58Bp2z-18" value="" style="endArrow=none;html=1;rounded=0;exitX=1;exitY=1;exitDx=0;exitDy=0;" edge="1" parent="1" target="QtgTP4tEdjy12H58Bp2z-19" source="QtgTP4tEdjy12H58Bp2z-17">
          <mxGeometry width="50" height="50" relative="1" as="geometry">
            <mxPoint x="552.5" y="620" as="sourcePoint" />
            <mxPoint x="580" y="580" as="targetPoint" />
          </mxGeometry>
        </mxCell>
        <mxCell id="QtgTP4tEdjy12H58Bp2z-19" value="&lt;u&gt;Reg#&lt;/u&gt;" style="ellipse;whiteSpace=wrap;html=1;" vertex="1" parent="1">
          <mxGeometry x="650" y="660" width="50" height="20" as="geometry" />
        </mxCell>
        <mxCell id="QtgTP4tEdjy12H58Bp2z-20" value="" style="endArrow=none;html=1;rounded=0;exitX=0.5;exitY=1;exitDx=0;exitDy=0;" edge="1" parent="1" source="QtgTP4tEdjy12H58Bp2z-17">
          <mxGeometry width="50" height="50" relative="1" as="geometry">
            <mxPoint x="460" y="644.52" as="sourcePoint" />
            <mxPoint x="565" y="680" as="targetPoint" />
          </mxGeometry>
        </mxCell>
        <mxCell id="QtgTP4tEdjy12H58Bp2z-21" value="N" style="text;strokeColor=none;align=center;fillColor=none;html=1;verticalAlign=middle;whiteSpace=wrap;rounded=0;" vertex="1" parent="1">
          <mxGeometry x="560" y="650" width="20" height="20" as="geometry" />
        </mxCell>
        <mxCell id="QtgTP4tEdjy12H58Bp2z-22" value="STORED_IN" style="rhombus;whiteSpace=wrap;html=1;" vertex="1" parent="1">
          <mxGeometry x="520" y="680" width="90" height="42.5" as="geometry" />
        </mxCell>
        <mxCell id="QtgTP4tEdjy12H58Bp2z-23" value="" style="endArrow=none;html=1;rounded=0;exitX=0.5;exitY=1;exitDx=0;exitDy=0;" edge="1" parent="1">
          <mxGeometry width="50" height="50" relative="1" as="geometry">
            <mxPoint x="565" y="722.5" as="sourcePoint" />
            <mxPoint x="565" y="752.5" as="targetPoint" />
          </mxGeometry>
        </mxCell>
        <mxCell id="QtgTP4tEdjy12H58Bp2z-24" value="1" style="text;strokeColor=none;align=center;fillColor=none;html=1;verticalAlign=middle;whiteSpace=wrap;rounded=0;" vertex="1" parent="1">
          <mxGeometry x="560" y="722.5" width="20" height="20" as="geometry" />
        </mxCell>
        <mxCell id="QtgTP4tEdjy12H58Bp2z-25" value="HANGAR" style="rounded=0;whiteSpace=wrap;html=1;" vertex="1" parent="1">
          <mxGeometry x="525" y="742.5" width="90" height="30" as="geometry" />
        </mxCell>
        <mxCell id="QtgTP4tEdjy12H58Bp2z-26" value="" style="endArrow=none;html=1;rounded=0;exitX=0;exitY=0;exitDx=0;exitDy=0;" edge="1" parent="1" target="QtgTP4tEdjy12H58Bp2z-27" source="QtgTP4tEdjy12H58Bp2z-25">
          <mxGeometry width="50" height="50" relative="1" as="geometry">
            <mxPoint x="520" y="740" as="sourcePoint" />
            <mxPoint x="475" y="712" as="targetPoint" />
          </mxGeometry>
        </mxCell>
        <mxCell id="QtgTP4tEdjy12H58Bp2z-27" value="&lt;u&gt;Number&lt;/u&gt;" style="ellipse;whiteSpace=wrap;html=1;" vertex="1" parent="1">
          <mxGeometry x="415" y="712" width="50" height="20" as="geometry" />
        </mxCell>
        <mxCell id="QtgTP4tEdjy12H58Bp2z-28" value="" style="endArrow=none;html=1;rounded=0;exitX=0;exitY=1;exitDx=0;exitDy=0;" edge="1" parent="1" target="QtgTP4tEdjy12H58Bp2z-29">
          <mxGeometry width="50" height="50" relative="1" as="geometry">
            <mxPoint x="525" y="772" as="sourcePoint" />
            <mxPoint x="495" y="792" as="targetPoint" />
          </mxGeometry>
        </mxCell>
        <mxCell id="QtgTP4tEdjy12H58Bp2z-29" value="Location" style="ellipse;whiteSpace=wrap;html=1;" vertex="1" parent="1">
          <mxGeometry x="425" y="792" width="60" height="20" as="geometry" />
        </mxCell>
        <mxCell id="QtgTP4tEdjy12H58Bp2z-30" value="" style="endArrow=none;html=1;rounded=0;exitX=0;exitY=0.5;exitDx=0;exitDy=0;" edge="1" parent="1" target="QtgTP4tEdjy12H58Bp2z-31">
          <mxGeometry width="50" height="50" relative="1" as="geometry">
            <mxPoint x="525" y="757" as="sourcePoint" />
            <mxPoint x="475" y="757" as="targetPoint" />
          </mxGeometry>
        </mxCell>
        <mxCell id="QtgTP4tEdjy12H58Bp2z-31" value="Capacity" style="ellipse;whiteSpace=wrap;html=1;" vertex="1" parent="1">
          <mxGeometry x="405" y="757" width="60" height="20" as="geometry" />
        </mxCell>
        <mxCell id="QtgTP4tEdjy12H58Bp2z-32" value="" style="endArrow=none;html=1;rounded=0;exitX=0.5;exitY=0;exitDx=0;exitDy=0;" edge="1" parent="1" source="QtgTP4tEdjy12H58Bp2z-17">
          <mxGeometry width="50" height="50" relative="1" as="geometry">
            <mxPoint x="575" y="660" as="sourcePoint" />
            <mxPoint x="565" y="580" as="targetPoint" />
          </mxGeometry>
        </mxCell>
        <mxCell id="QtgTP4tEdjy12H58Bp2z-34" value="1" style="text;strokeColor=none;align=center;fillColor=none;html=1;verticalAlign=middle;whiteSpace=wrap;rounded=0;" vertex="1" parent="1">
          <mxGeometry x="560" y="580" width="20" height="20" as="geometry" />
        </mxCell>
        <mxCell id="QtgTP4tEdjy12H58Bp2z-35" value="PLANE_SERVICE" style="shape=rhombus;double=1;perimeter=rhombusPerimeter;whiteSpace=wrap;html=1;align=center;" vertex="1" parent="1">
          <mxGeometry x="500" y="520" width="130" height="60" as="geometry" />
        </mxCell>
        <mxCell id="QtgTP4tEdjy12H58Bp2z-36" value="" style="shape=link;html=1;rounded=0;exitX=0.5;exitY=0;exitDx=0;exitDy=0;" edge="1" parent="1" source="QtgTP4tEdjy12H58Bp2z-35">
          <mxGeometry relative="1" as="geometry">
            <mxPoint x="500" y="510" as="sourcePoint" />
            <mxPoint x="565" y="490" as="targetPoint" />
          </mxGeometry>
        </mxCell>
        <mxCell id="QtgTP4tEdjy12H58Bp2z-37" value="" style="resizable=0;html=1;whiteSpace=wrap;align=left;verticalAlign=bottom;" connectable="0" vertex="1" parent="QtgTP4tEdjy12H58Bp2z-36">
          <mxGeometry x="-1" relative="1" as="geometry" />
        </mxCell>
        <mxCell id="QtgTP4tEdjy12H58Bp2z-38" value="N" style="resizable=0;html=1;whiteSpace=wrap;align=right;verticalAlign=bottom;" connectable="0" vertex="1" parent="QtgTP4tEdjy12H58Bp2z-36">
          <mxGeometry x="1" relative="1" as="geometry">
            <mxPoint x="-5" y="16" as="offset" />
          </mxGeometry>
        </mxCell>
        <mxCell id="QtgTP4tEdjy12H58Bp2z-39" value="SERVICE" style="shape=ext;margin=3;double=1;whiteSpace=wrap;html=1;align=center;" vertex="1" parent="1">
          <mxGeometry x="515" y="450" width="100" height="40" as="geometry" />
        </mxCell>
        <mxCell id="QtgTP4tEdjy12H58Bp2z-40" value="" style="endArrow=none;html=1;rounded=0;exitX=0;exitY=0.5;exitDx=0;exitDy=0;" edge="1" parent="1" target="QtgTP4tEdjy12H58Bp2z-41" source="QtgTP4tEdjy12H58Bp2z-39">
          <mxGeometry width="50" height="50" relative="1" as="geometry">
            <mxPoint x="500" y="470" as="sourcePoint" />
            <mxPoint x="450" y="470" as="targetPoint" />
          </mxGeometry>
        </mxCell>
        <mxCell id="QtgTP4tEdjy12H58Bp2z-41" value="Hours" style="ellipse;whiteSpace=wrap;html=1;" vertex="1" parent="1">
          <mxGeometry x="425" y="460" width="60" height="20" as="geometry" />
        </mxCell>
        <mxCell id="QtgTP4tEdjy12H58Bp2z-42" value="" style="endArrow=none;html=1;rounded=0;exitX=1;exitY=0.5;exitDx=0;exitDy=0;" edge="1" parent="1" target="QtgTP4tEdjy12H58Bp2z-43" source="QtgTP4tEdjy12H58Bp2z-39">
          <mxGeometry width="50" height="50" relative="1" as="geometry">
            <mxPoint x="720" y="470" as="sourcePoint" />
            <mxPoint x="655" y="470" as="targetPoint" />
          </mxGeometry>
        </mxCell>
        <mxCell id="QtgTP4tEdjy12H58Bp2z-43" value="&lt;u&gt;Date/workcode&lt;/u&gt;" style="ellipse;whiteSpace=wrap;html=1;" vertex="1" parent="1">
          <mxGeometry x="630" y="460" width="120" height="20" as="geometry" />
        </mxCell>
        <mxCell id="QtgTP4tEdjy12H58Bp2z-44" value="" style="endArrow=none;html=1;rounded=0;exitX=1;exitY=0.5;exitDx=0;exitDy=0;" edge="1" parent="1" target="QtgTP4tEdjy12H58Bp2z-45" source="QtgTP4tEdjy12H58Bp2z-43">
          <mxGeometry width="50" height="50" relative="1" as="geometry">
            <mxPoint x="840" y="450" as="sourcePoint" />
            <mxPoint x="775" y="450" as="targetPoint" />
          </mxGeometry>
        </mxCell>
        <mxCell id="QtgTP4tEdjy12H58Bp2z-45" value="Date" style="ellipse;whiteSpace=wrap;html=1;" vertex="1" parent="1">
          <mxGeometry x="750" y="440" width="60" height="20" as="geometry" />
        </mxCell>
        <mxCell id="QtgTP4tEdjy12H58Bp2z-46" value="" style="endArrow=none;html=1;rounded=0;" edge="1" parent="1" target="QtgTP4tEdjy12H58Bp2z-47">
          <mxGeometry width="50" height="50" relative="1" as="geometry">
            <mxPoint x="750" y="470" as="sourcePoint" />
            <mxPoint x="785" y="490" as="targetPoint" />
          </mxGeometry>
        </mxCell>
        <mxCell id="QtgTP4tEdjy12H58Bp2z-47" value="Workcode" style="ellipse;whiteSpace=wrap;html=1;" vertex="1" parent="1">
          <mxGeometry x="760" y="470" width="60" height="20" as="geometry" />
        </mxCell>
        <mxCell id="QtgTP4tEdjy12H58Bp2z-49" value="" style="endArrow=none;html=1;rounded=0;entryX=0.5;entryY=0;entryDx=0;entryDy=0;exitX=0.5;exitY=1;exitDx=0;exitDy=0;" edge="1" parent="1" source="QtgTP4tEdjy12H58Bp2z-50" target="QtgTP4tEdjy12H58Bp2z-39">
          <mxGeometry width="50" height="50" relative="1" as="geometry">
            <mxPoint x="560" y="410" as="sourcePoint" />
            <mxPoint x="167" y="615" as="targetPoint" />
          </mxGeometry>
        </mxCell>
        <mxCell id="QtgTP4tEdjy12H58Bp2z-50" value="MAINTAIN" style="rhombus;whiteSpace=wrap;html=1;" vertex="1" parent="1">
          <mxGeometry x="527.5" y="377" width="75" height="42.5" as="geometry" />
        </mxCell>
        <mxCell id="QtgTP4tEdjy12H58Bp2z-51" value="M" style="resizable=0;html=1;whiteSpace=wrap;align=right;verticalAlign=bottom;" connectable="0" vertex="1" parent="1">
          <mxGeometry x="562" y="434.0042857142857" as="geometry" />
        </mxCell>
        <mxCell id="QtgTP4tEdjy12H58Bp2z-52" value="" style="endArrow=none;html=1;rounded=0;entryX=0.5;entryY=0;entryDx=0;entryDy=0;exitX=0.5;exitY=1;exitDx=0;exitDy=0;" edge="1" parent="1">
          <mxGeometry width="50" height="50" relative="1" as="geometry">
            <mxPoint x="565" y="347" as="sourcePoint" />
            <mxPoint x="565" y="377" as="targetPoint" />
          </mxGeometry>
        </mxCell>
        <mxCell id="QtgTP4tEdjy12H58Bp2z-53" value="N" style="resizable=0;html=1;whiteSpace=wrap;align=right;verticalAlign=bottom;" connectable="0" vertex="1" parent="1">
          <mxGeometry x="563" y="365.0042857142857" as="geometry" />
        </mxCell>
        <mxCell id="QtgTP4tEdjy12H58Bp2z-54" value="EMPLOYEE" style="rounded=0;whiteSpace=wrap;html=1;" vertex="1" parent="1">
          <mxGeometry x="520" y="320" width="90" height="30" as="geometry" />
        </mxCell>
        <mxCell id="QtgTP4tEdjy12H58Bp2z-55" value="" style="endArrow=none;html=1;rounded=0;exitX=1;exitY=0.5;exitDx=0;exitDy=0;" edge="1" parent="1" target="QtgTP4tEdjy12H58Bp2z-56">
          <mxGeometry width="50" height="50" relative="1" as="geometry">
            <mxPoint x="610" y="340" as="sourcePoint" />
            <mxPoint x="635" y="320" as="targetPoint" />
          </mxGeometry>
        </mxCell>
        <mxCell id="QtgTP4tEdjy12H58Bp2z-56" value="Shift" style="ellipse;whiteSpace=wrap;html=1;" vertex="1" parent="1">
          <mxGeometry x="620" y="310" width="60" height="20" as="geometry" />
        </mxCell>
        <mxCell id="QtgTP4tEdjy12H58Bp2z-57" value="" style="endArrow=none;html=1;rounded=0;" edge="1" parent="1" target="QtgTP4tEdjy12H58Bp2z-58">
          <mxGeometry width="50" height="50" relative="1" as="geometry">
            <mxPoint x="610" y="340" as="sourcePoint" />
            <mxPoint x="645" y="360" as="targetPoint" />
          </mxGeometry>
        </mxCell>
        <mxCell id="QtgTP4tEdjy12H58Bp2z-58" value="Salary" style="ellipse;whiteSpace=wrap;html=1;" vertex="1" parent="1">
          <mxGeometry x="620" y="340" width="60" height="20" as="geometry" />
        </mxCell>
        <mxCell id="QtgTP4tEdjy12H58Bp2z-59" value="WORKS_ON" style="rhombus;whiteSpace=wrap;html=1;" vertex="1" parent="1">
          <mxGeometry x="388.75" y="313.75" width="92.5" height="42.5" as="geometry" />
        </mxCell>
        <mxCell id="QtgTP4tEdjy12H58Bp2z-60" value="" style="endArrow=none;html=1;rounded=0;entryX=1;entryY=0.5;entryDx=0;entryDy=0;exitX=0;exitY=0.5;exitDx=0;exitDy=0;" edge="1" parent="1" source="QtgTP4tEdjy12H58Bp2z-54" target="QtgTP4tEdjy12H58Bp2z-59">
          <mxGeometry width="50" height="50" relative="1" as="geometry">
            <mxPoint x="575" y="357" as="sourcePoint" />
            <mxPoint x="575" y="387" as="targetPoint" />
          </mxGeometry>
        </mxCell>
        <mxCell id="QtgTP4tEdjy12H58Bp2z-62" value="N" style="resizable=0;html=1;whiteSpace=wrap;align=right;verticalAlign=bottom;" connectable="0" vertex="1" parent="1">
          <mxGeometry x="491" y="336.0042857142857" as="geometry" />
        </mxCell>
        <mxCell id="QtgTP4tEdjy12H58Bp2z-63" value="M" style="resizable=0;html=1;whiteSpace=wrap;align=right;verticalAlign=bottom;" connectable="0" vertex="1" parent="1">
          <mxGeometry x="380" y="350.0042857142857" as="geometry" />
        </mxCell>
        <mxCell id="QtgTP4tEdjy12H58Bp2z-65" value="" style="endArrow=none;html=1;rounded=0;exitX=0;exitY=0.5;exitDx=0;exitDy=0;" edge="1" parent="1" source="QtgTP4tEdjy12H58Bp2z-59">
          <mxGeometry width="50" height="50" relative="1" as="geometry">
            <mxPoint x="230" y="630" as="sourcePoint" />
            <mxPoint x="260" y="335" as="targetPoint" />
          </mxGeometry>
        </mxCell>
        <mxCell id="QtgTP4tEdjy12H58Bp2z-67" value="" style="endArrow=none;html=1;rounded=0;exitX=0.456;exitY=-0.014;exitDx=0;exitDy=0;exitPerimeter=0;" edge="1" parent="1">
          <mxGeometry width="50" height="50" relative="1" as="geometry">
            <mxPoint x="261.03999999999996" y="619.5800000000002" as="sourcePoint" />
            <mxPoint x="260" y="335" as="targetPoint" />
          </mxGeometry>
        </mxCell>
        <mxCell id="QtgTP4tEdjy12H58Bp2z-68" value="" style="rounded=0;orthogonalLoop=1;jettySize=auto;html=1;endArrow=halfCircle;endFill=0;endSize=6;strokeWidth=1;sketch=0;fontSize=12;curved=1;exitX=0.446;exitY=0.001;exitDx=0;exitDy=0;exitPerimeter=0;" edge="1" parent="1" source="QtgTP4tEdjy12H58Bp2z-54">
          <mxGeometry relative="1" as="geometry">
            <mxPoint x="561.04" y="320.46" as="sourcePoint" />
            <mxPoint x="560" y="290" as="targetPoint" />
          </mxGeometry>
        </mxCell>
        <mxCell id="QtgTP4tEdjy12H58Bp2z-69" value="" style="ellipse;whiteSpace=wrap;html=1;align=center;aspect=fixed;fillColor=none;strokeColor=none;resizable=0;perimeter=centerPerimeter;rotatable=0;allowArrows=0;points=[];outlineConnect=1;" vertex="1" parent="1">
          <mxGeometry x="440" y="280" width="10" height="10" as="geometry" />
        </mxCell>
        <mxCell id="QtgTP4tEdjy12H58Bp2z-72" value="" style="endArrow=none;html=1;rounded=0;" edge="1" parent="1">
          <mxGeometry width="50" height="50" relative="1" as="geometry">
            <mxPoint x="560" y="249" as="sourcePoint" />
            <mxPoint x="560" y="299" as="targetPoint" />
          </mxGeometry>
        </mxCell>
        <mxCell id="QtgTP4tEdjy12H58Bp2z-73" value="PERSON" style="rounded=0;whiteSpace=wrap;html=1;" vertex="1" parent="1">
          <mxGeometry x="515" y="221" width="90" height="30" as="geometry" />
        </mxCell>
        <mxCell id="QtgTP4tEdjy12H58Bp2z-74" value="" style="rounded=0;orthogonalLoop=1;jettySize=auto;html=1;endArrow=halfCircle;endFill=0;endSize=6;strokeWidth=1;sketch=0;fontSize=12;curved=1;" edge="1" parent="1">
          <mxGeometry relative="1" as="geometry">
            <mxPoint x="446" y="236" as="sourcePoint" />
            <mxPoint x="487.25" y="236" as="targetPoint" />
          </mxGeometry>
        </mxCell>
        <mxCell id="QtgTP4tEdjy12H58Bp2z-75" value="" style="endArrow=none;html=1;rounded=0;exitX=0;exitY=0.5;exitDx=0;exitDy=0;" edge="1" parent="1" source="QtgTP4tEdjy12H58Bp2z-73">
          <mxGeometry width="50" height="50" relative="1" as="geometry">
            <mxPoint x="481.25" y="219" as="sourcePoint" />
            <mxPoint x="480" y="236" as="targetPoint" />
          </mxGeometry>
        </mxCell>
        <mxCell id="QtgTP4tEdjy12H58Bp2z-76" value="PILOT" style="rounded=0;whiteSpace=wrap;html=1;" vertex="1" parent="1">
          <mxGeometry x="360" y="221" width="90" height="30" as="geometry" />
        </mxCell>
        <mxCell id="QtgTP4tEdjy12H58Bp2z-77" value="" style="endArrow=none;html=1;rounded=0;" edge="1" parent="1" target="QtgTP4tEdjy12H58Bp2z-78">
          <mxGeometry width="50" height="50" relative="1" as="geometry">
            <mxPoint x="400" y="220" as="sourcePoint" />
            <mxPoint x="395" y="170" as="targetPoint" />
          </mxGeometry>
        </mxCell>
        <mxCell id="QtgTP4tEdjy12H58Bp2z-78" value="Lic_num" style="ellipse;whiteSpace=wrap;html=1;" vertex="1" parent="1">
          <mxGeometry x="405" y="180" width="60" height="20" as="geometry" />
        </mxCell>
        <mxCell id="QtgTP4tEdjy12H58Bp2z-79" value="" style="endArrow=none;html=1;rounded=0;" edge="1" parent="1" target="QtgTP4tEdjy12H58Bp2z-80">
          <mxGeometry width="50" height="50" relative="1" as="geometry">
            <mxPoint x="400" y="220" as="sourcePoint" />
            <mxPoint x="405" y="210" as="targetPoint" />
          </mxGeometry>
        </mxCell>
        <mxCell id="QtgTP4tEdjy12H58Bp2z-80" value="Restr" style="ellipse;whiteSpace=wrap;html=1;" vertex="1" parent="1">
          <mxGeometry x="340" y="180" width="60" height="20" as="geometry" />
        </mxCell>
        <mxCell id="QtgTP4tEdjy12H58Bp2z-81" value="N" style="resizable=0;html=1;whiteSpace=wrap;align=right;verticalAlign=bottom;" connectable="0" vertex="1" parent="1">
          <mxGeometry x="303" y="251.0042857142857" as="geometry">
            <mxPoint x="4" y="5" as="offset" />
          </mxGeometry>
        </mxCell>
        <mxCell id="QtgTP4tEdjy12H58Bp2z-82" value="" style="endArrow=none;html=1;rounded=0;exitX=0;exitY=0.5;exitDx=0;exitDy=0;" edge="1" parent="1">
          <mxGeometry width="50" height="50" relative="1" as="geometry">
            <mxPoint x="360" y="236" as="sourcePoint" />
            <mxPoint x="290" y="236" as="targetPoint" />
          </mxGeometry>
        </mxCell>
        <mxCell id="QtgTP4tEdjy12H58Bp2z-83" value="FLIES" style="rhombus;whiteSpace=wrap;html=1;" vertex="1" parent="1">
          <mxGeometry x="200" y="214.75" width="92.5" height="42.5" as="geometry" />
        </mxCell>
        <mxCell id="QtgTP4tEdjy12H58Bp2z-84" value="M" style="resizable=0;html=1;whiteSpace=wrap;align=right;verticalAlign=bottom;" connectable="0" vertex="1" parent="1">
          <mxGeometry x="200" y="250.0042857142857" as="geometry">
            <mxPoint y="5" as="offset" />
          </mxGeometry>
        </mxCell>
        <mxCell id="QtgTP4tEdjy12H58Bp2z-85" value="" style="endArrow=none;html=1;rounded=0;exitX=0;exitY=0.5;exitDx=0;exitDy=0;" edge="1" parent="1">
          <mxGeometry width="50" height="50" relative="1" as="geometry">
            <mxPoint x="200" y="236" as="sourcePoint" />
            <mxPoint x="130" y="236" as="targetPoint" />
          </mxGeometry>
        </mxCell>
        <mxCell id="QtgTP4tEdjy12H58Bp2z-86" value="" style="endArrow=none;html=1;rounded=0;exitX=0.456;exitY=-0.014;exitDx=0;exitDy=0;exitPerimeter=0;" edge="1" parent="1">
          <mxGeometry width="50" height="50" relative="1" as="geometry">
            <mxPoint x="130.51999999999995" y="520.0000000000001" as="sourcePoint" />
            <mxPoint x="129.48" y="235.42000000000002" as="targetPoint" />
          </mxGeometry>
        </mxCell>
        <mxCell id="QtgTP4tEdjy12H58Bp2z-87" value="" style="endArrow=none;html=1;rounded=0;" edge="1" parent="1">
          <mxGeometry width="50" height="50" relative="1" as="geometry">
            <mxPoint x="240" y="520" as="sourcePoint" />
            <mxPoint x="130" y="520" as="targetPoint" />
          </mxGeometry>
        </mxCell>
        <mxCell id="QtgTP4tEdjy12H58Bp2z-88" value="" style="endArrow=none;html=1;rounded=0;exitX=0.456;exitY=-0.014;exitDx=0;exitDy=0;exitPerimeter=0;" edge="1" parent="1">
          <mxGeometry width="50" height="50" relative="1" as="geometry">
            <mxPoint x="241.03999999999996" y="620.0000000000001" as="sourcePoint" />
            <mxPoint x="240" y="520" as="targetPoint" />
          </mxGeometry>
        </mxCell>
        <mxCell id="QtgTP4tEdjy12H58Bp2z-89" value="" style="endArrow=none;html=1;rounded=0;exitX=1;exitY=0.5;exitDx=0;exitDy=0;" edge="1" parent="1" target="QtgTP4tEdjy12H58Bp2z-90">
          <mxGeometry width="50" height="50" relative="1" as="geometry">
            <mxPoint x="605" y="230" as="sourcePoint" />
            <mxPoint x="630" y="210" as="targetPoint" />
          </mxGeometry>
        </mxCell>
        <mxCell id="QtgTP4tEdjy12H58Bp2z-90" value="&lt;u&gt;Ssn&lt;/u&gt;" style="ellipse;whiteSpace=wrap;html=1;" vertex="1" parent="1">
          <mxGeometry x="605" y="200" width="60" height="20" as="geometry" />
        </mxCell>
        <mxCell id="QtgTP4tEdjy12H58Bp2z-91" value="" style="endArrow=none;html=1;rounded=0;exitX=1;exitY=0.633;exitDx=0;exitDy=0;exitPerimeter=0;" edge="1" parent="1" target="QtgTP4tEdjy12H58Bp2z-92" source="QtgTP4tEdjy12H58Bp2z-73">
          <mxGeometry width="50" height="50" relative="1" as="geometry">
            <mxPoint x="605" y="230" as="sourcePoint" />
            <mxPoint x="640" y="250" as="targetPoint" />
          </mxGeometry>
        </mxCell>
        <mxCell id="QtgTP4tEdjy12H58Bp2z-92" value="Phone" style="ellipse;whiteSpace=wrap;html=1;" vertex="1" parent="1">
          <mxGeometry x="615" y="230" width="60" height="20" as="geometry" />
        </mxCell>
        <mxCell id="QtgTP4tEdjy12H58Bp2z-93" value="" style="endArrow=none;html=1;rounded=0;exitX=1;exitY=1;exitDx=0;exitDy=0;" edge="1" parent="1" target="QtgTP4tEdjy12H58Bp2z-94" source="QtgTP4tEdjy12H58Bp2z-73">
          <mxGeometry width="50" height="50" relative="1" as="geometry">
            <mxPoint x="690" y="250" as="sourcePoint" />
            <mxPoint x="715" y="230" as="targetPoint" />
          </mxGeometry>
        </mxCell>
        <mxCell id="QtgTP4tEdjy12H58Bp2z-94" value="Name" style="ellipse;whiteSpace=wrap;html=1;" vertex="1" parent="1">
          <mxGeometry x="610" y="257.25" width="60" height="20" as="geometry" />
        </mxCell>
        <mxCell id="QtgTP4tEdjy12H58Bp2z-97" value="" style="endArrow=none;html=1;rounded=0;" edge="1" parent="1" target="QtgTP4tEdjy12H58Bp2z-98">
          <mxGeometry width="50" height="50" relative="1" as="geometry">
            <mxPoint x="580" y="220" as="sourcePoint" />
            <mxPoint x="675" y="147.5" as="targetPoint" />
          </mxGeometry>
        </mxCell>
        <mxCell id="QtgTP4tEdjy12H58Bp2z-98" value="Address" style="ellipse;whiteSpace=wrap;html=1;" vertex="1" parent="1">
          <mxGeometry x="600" y="174.75" width="60" height="20" as="geometry" />
        </mxCell>
        <mxCell id="QtgTP4tEdjy12H58Bp2z-99" value="" style="endArrow=none;html=1;rounded=0;" edge="1" parent="1">
          <mxGeometry width="50" height="50" relative="1" as="geometry">
            <mxPoint x="840" y="634" as="sourcePoint" />
            <mxPoint x="610" y="634.31" as="targetPoint" />
          </mxGeometry>
        </mxCell>
        <mxCell id="QtgTP4tEdjy12H58Bp2z-101" value="" style="endArrow=none;html=1;rounded=0;exitX=0.456;exitY=-0.014;exitDx=0;exitDy=0;exitPerimeter=0;" edge="1" parent="1">
          <mxGeometry width="50" height="50" relative="1" as="geometry">
            <mxPoint x="840.04" y="634.5800000000002" as="sourcePoint" />
            <mxPoint x="839" y="120" as="targetPoint" />
          </mxGeometry>
        </mxCell>
        <mxCell id="QtgTP4tEdjy12H58Bp2z-102" value="" style="endArrow=none;html=1;rounded=0;exitX=0;exitY=0.5;exitDx=0;exitDy=0;" edge="1" parent="1">
          <mxGeometry width="50" height="50" relative="1" as="geometry">
            <mxPoint x="839" y="120" as="sourcePoint" />
            <mxPoint x="640" y="120" as="targetPoint" />
          </mxGeometry>
        </mxCell>
        <mxCell id="QtgTP4tEdjy12H58Bp2z-103" value="OWNS" style="rhombus;whiteSpace=wrap;html=1;" vertex="1" parent="1">
          <mxGeometry x="550" y="99" width="92.5" height="42.5" as="geometry" />
        </mxCell>
        <mxCell id="QtgTP4tEdjy12H58Bp2z-104" value="M" style="resizable=0;html=1;whiteSpace=wrap;align=right;verticalAlign=bottom;" connectable="0" vertex="1" parent="1">
          <mxGeometry x="652" y="131.0042857142857" as="geometry">
            <mxPoint y="5" as="offset" />
          </mxGeometry>
        </mxCell>
        <mxCell id="QtgTP4tEdjy12H58Bp2z-105" value="" style="endArrow=none;html=1;rounded=0;exitX=0.5;exitY=0;exitDx=0;exitDy=0;" edge="1" parent="1" target="QtgTP4tEdjy12H58Bp2z-106" source="QtgTP4tEdjy12H58Bp2z-103">
          <mxGeometry width="50" height="50" relative="1" as="geometry">
            <mxPoint x="595" y="99" as="sourcePoint" />
            <mxPoint x="600" y="89" as="targetPoint" />
          </mxGeometry>
        </mxCell>
        <mxCell id="QtgTP4tEdjy12H58Bp2z-106" value="Pdate" style="ellipse;whiteSpace=wrap;html=1;" vertex="1" parent="1">
          <mxGeometry x="566.25" y="50" width="60" height="20" as="geometry" />
        </mxCell>
        <mxCell id="QtgTP4tEdjy12H58Bp2z-107" value="" style="endArrow=none;html=1;rounded=0;exitX=0;exitY=0.5;exitDx=0;exitDy=0;" edge="1" parent="1">
          <mxGeometry width="50" height="50" relative="1" as="geometry">
            <mxPoint x="550" y="119.91" as="sourcePoint" />
            <mxPoint x="480" y="120" as="targetPoint" />
          </mxGeometry>
        </mxCell>
        <mxCell id="QtgTP4tEdjy12H58Bp2z-108" value="N" style="resizable=0;html=1;whiteSpace=wrap;align=right;verticalAlign=bottom;" connectable="0" vertex="1" parent="1">
          <mxGeometry x="314" y="263.0042857142857" as="geometry">
            <mxPoint x="234" y="-127" as="offset" />
          </mxGeometry>
        </mxCell>
        <mxCell id="QtgTP4tEdjy12H58Bp2z-109" value="OWNER" style="rounded=0;whiteSpace=wrap;html=1;" vertex="1" parent="1">
          <mxGeometry x="435" y="10" width="90" height="30" as="geometry" />
        </mxCell>
        <mxCell id="QtgTP4tEdjy12H58Bp2z-110" value="" style="rounded=0;orthogonalLoop=1;jettySize=auto;html=1;endArrow=halfCircle;endFill=0;endSize=6;strokeWidth=1;sketch=0;fontSize=12;curved=1;exitX=0;exitY=0.5;exitDx=0;exitDy=0;" edge="1" parent="1" source="QtgTP4tEdjy12H58Bp2z-109">
          <mxGeometry relative="1" as="geometry">
            <mxPoint x="260" y="119.91" as="sourcePoint" />
            <mxPoint x="370" y="25" as="targetPoint" />
          </mxGeometry>
        </mxCell>
        <mxCell id="QtgTP4tEdjy12H58Bp2z-111" value="" style="endArrow=none;html=1;rounded=0;exitX=0;exitY=0.5;exitDx=0;exitDy=0;" edge="1" parent="1">
          <mxGeometry width="50" height="50" relative="1" as="geometry">
            <mxPoint x="400" y="24.659999999999997" as="sourcePoint" />
            <mxPoint x="351" y="24.75" as="targetPoint" />
            <Array as="points">
              <mxPoint x="400" y="24.75" />
            </Array>
          </mxGeometry>
        </mxCell>
        <mxCell id="QtgTP4tEdjy12H58Bp2z-112" value="" style="endArrow=none;html=1;rounded=0;" edge="1" parent="1">
          <mxGeometry width="50" height="50" relative="1" as="geometry">
            <mxPoint x="480" y="120" as="sourcePoint" />
            <mxPoint x="480" y="40" as="targetPoint" />
          </mxGeometry>
        </mxCell>
        <mxCell id="QtgTP4tEdjy12H58Bp2z-113" value="U" style="ellipse;whiteSpace=wrap;html=1;aspect=fixed;" vertex="1" parent="1">
          <mxGeometry x="330" y="15" width="20" height="20" as="geometry" />
        </mxCell>
        <mxCell id="QtgTP4tEdjy12H58Bp2z-114" value="CORPORATION" style="rounded=0;whiteSpace=wrap;html=1;" vertex="1" parent="1">
          <mxGeometry x="190" y="55" width="90" height="30" as="geometry" />
        </mxCell>
        <mxCell id="QtgTP4tEdjy12H58Bp2z-115" value="" style="endArrow=none;html=1;rounded=0;exitX=0;exitY=0;exitDx=0;exitDy=0;" edge="1" parent="1" target="QtgTP4tEdjy12H58Bp2z-116" source="QtgTP4tEdjy12H58Bp2z-114">
          <mxGeometry width="50" height="50" relative="1" as="geometry">
            <mxPoint x="110" y="111.62" as="sourcePoint" />
            <mxPoint x="135" y="91.62" as="targetPoint" />
          </mxGeometry>
        </mxCell>
        <mxCell id="QtgTP4tEdjy12H58Bp2z-116" value="&lt;u&gt;Name&lt;/u&gt;" style="ellipse;whiteSpace=wrap;html=1;" vertex="1" parent="1">
          <mxGeometry x="110" y="35.00000000000001" width="60" height="20" as="geometry" />
        </mxCell>
        <mxCell id="QtgTP4tEdjy12H58Bp2z-117" value="" style="endArrow=none;html=1;rounded=0;exitX=0;exitY=0.5;exitDx=0;exitDy=0;" edge="1" parent="1" target="QtgTP4tEdjy12H58Bp2z-118" source="QtgTP4tEdjy12H58Bp2z-114">
          <mxGeometry width="50" height="50" relative="1" as="geometry">
            <mxPoint x="110" y="121.62" as="sourcePoint" />
            <mxPoint x="145" y="131.62" as="targetPoint" />
          </mxGeometry>
        </mxCell>
        <mxCell id="QtgTP4tEdjy12H58Bp2z-118" value="Phone" style="ellipse;whiteSpace=wrap;html=1;" vertex="1" parent="1">
          <mxGeometry x="105" y="60.00000000000001" width="60" height="20" as="geometry" />
        </mxCell>
        <mxCell id="QtgTP4tEdjy12H58Bp2z-119" value="" style="endArrow=none;html=1;rounded=0;exitX=0;exitY=1;exitDx=0;exitDy=0;" edge="1" parent="1" target="QtgTP4tEdjy12H58Bp2z-120" source="QtgTP4tEdjy12H58Bp2z-114">
          <mxGeometry width="50" height="50" relative="1" as="geometry">
            <mxPoint x="110" y="132.62" as="sourcePoint" />
            <mxPoint x="220" y="111.62" as="targetPoint" />
          </mxGeometry>
        </mxCell>
        <mxCell id="QtgTP4tEdjy12H58Bp2z-120" value="Address" style="ellipse;whiteSpace=wrap;html=1;" vertex="1" parent="1">
          <mxGeometry x="105" y="90" width="60" height="20" as="geometry" />
        </mxCell>
        <mxCell id="QtgTP4tEdjy12H58Bp2z-121" value="" style="endArrow=none;html=1;rounded=0;exitX=1;exitY=0.5;exitDx=0;exitDy=0;entryX=0;entryY=0.5;entryDx=0;entryDy=0;" edge="1" parent="1" source="QtgTP4tEdjy12H58Bp2z-114" target="QtgTP4tEdjy12H58Bp2z-113">
          <mxGeometry width="50" height="50" relative="1" as="geometry">
            <mxPoint x="520" y="190" as="sourcePoint" />
            <mxPoint x="570" y="140" as="targetPoint" />
          </mxGeometry>
        </mxCell>
        <mxCell id="QtgTP4tEdjy12H58Bp2z-122" value="" style="endArrow=none;html=1;rounded=0;exitX=1;exitY=1;exitDx=0;exitDy=0;" edge="1" parent="1" source="QtgTP4tEdjy12H58Bp2z-113">
          <mxGeometry width="50" height="50" relative="1" as="geometry">
            <mxPoint x="290" y="80" as="sourcePoint" />
            <mxPoint x="560" y="220" as="targetPoint" />
          </mxGeometry>
        </mxCell>
      </root>
    </mxGraphModel>
  </diagram>
</mxfile>
